<?xml version="1.0" standalone="no"?>
<!DOCTYPE svg PUBLIC "-//W3C//DTD SVG 20010904//EN"
 "http://www.w3.org/TR/2001/REC-SVG-20010904/DTD/svg10.dtd">
<svg version="1.0" xmlns="http://www.w3.org/2000/svg"
 width="500.000000pt" height="500.000000pt" viewBox="0 0 500.000000 500.000000"
 preserveAspectRatio="xMidYMid meet">

<g transform="translate(0.000000,500.000000) scale(0.100000,-0.100000)"
fill="#000000" stroke="none">
<path d="M2295 3886 c-177 -27 -288 -62 -442 -140 -130 -65 -323 -208 -323
-239 0 -6 19 7 43 30 64 62 192 150 291 200 431 217 952 190 1348 -70 339
-222 555 -568 609 -972 14 -111 7 -333 -15 -434 -113 -516 -492 -915 -992
-1041 -459 -117 -931 7 -1271 333 -46 44 -83 75 -83 69 0 -5 35 -43 79 -84
422 -398 1038 -486 1560 -223 248 125 474 352 601 605 158 315 186 701 74
1040 -157 475 -570 833 -1054 914 -137 23 -318 28 -425 12z"/>
<path d="M1479 3474 c-13 -15 -61 -55 -106 -91 -146 -114 -172 -157 -198 -333
-14 -93 -63 -273 -64 -236 -1 11 -20 76 -42 145 -38 116 -41 135 -42 236 l0
110 -20 -45 c-37 -83 -69 -184 -74 -235 -9 -84 14 -138 122 -294 l44 -64 0
-99 0 -100 -30 46 c-19 27 -57 62 -98 90 -80 52 -139 117 -188 204 -19 35 -38
61 -40 58 -7 -7 14 -159 28 -207 17 -54 62 -105 138 -154 158 -102 201 -154
242 -294 15 -55 46 -140 67 -189 l39 -90 -80 66 c-98 81 -137 134 -166 223
-46 142 -121 209 -233 209 -60 0 -71 -13 -20 -23 39 -8 81 -52 109 -117 65
-150 93 -182 221 -252 107 -59 168 -120 239 -239 73 -124 89 -146 98 -138 3 4
-14 38 -38 75 -25 38 -64 106 -87 151 -35 70 -42 91 -40 135 3 72 1 79 -14 38
l-13 -35 -23 60 c-48 126 -36 190 54 294 26 29 64 90 85 135 40 82 81 133 133
163 39 24 35 33 -14 33 -115 0 -189 -58 -226 -176 -12 -38 -36 -116 -54 -174
l-33 -105 -17 90 c-9 50 -17 118 -18 153 0 102 18 128 190 264 70 56 95 101
131 240 16 62 36 123 45 136 29 43 4 36 -47 -14 -27 -27 -70 -83 -94 -124 -25
-44 -73 -104 -115 -145 -72 -70 -100 -109 -100 -141 0 -10 -3 -15 -6 -11 -9 8
23 159 47 223 17 44 32 63 81 100 90 69 139 144 178 266 18 57 44 125 57 151
29 57 26 67 -8 31z m-58 -168 c-22 -64 -51 -135 -65 -156 -30 -46 -143 -143
-157 -135 -30 19 12 188 62 249 30 35 190 168 196 162 2 -1 -15 -55 -36 -120z
m-361 -364 c29 -89 40 -137 39 -179 0 -43 -3 -52 -8 -33 -5 14 -23 54 -41 90
-18 36 -39 81 -46 100 -7 19 -13 28 -13 19 -1 -8 19 -57 44 -109 25 -51 44
-94 42 -97 -9 -8 -103 146 -120 196 -21 64 -18 100 21 216 l27 80 7 -81 c5
-51 23 -126 48 -202z m373 83 c-41 -150 -53 -177 -102 -225 -49 -48 -173 -146
-180 -141 -2 1 -8 -3 -13 -11 -12 -18 1 59 17 98 7 17 49 66 94 109 48 48 93
103 112 138 28 53 88 132 94 125 2 -2 -8 -43 -22 -93z m-562 -362 c19 -18 65
-54 104 -80 56 -39 75 -59 97 -103 15 -30 30 -68 34 -85 6 -29 6 -29 -11 -10
-9 11 -13 13 -9 5 4 -8 -15 6 -42 31 -27 26 -82 68 -122 94 -114 74 -142 118
-157 245 l-6 55 39 -60 c22 -33 55 -74 73 -92z m556 -8 c-28 -28 -64 -82 -92
-138 -26 -51 -67 -114 -92 -142 -25 -27 -40 -40 -34 -27 7 12 9 28 5 34 -4 6
-3 8 3 5 5 -3 24 23 41 59 42 86 40 96 -3 14 -40 -76 -43 -69 -14 26 40 129
75 175 150 199 80 25 87 19 36 -30z m-540 -266 c45 -28 88 -96 114 -179 11
-36 26 -75 35 -87 8 -13 12 -23 8 -23 -4 0 0 -8 7 -17 12 -14 9 -14 -20 3 -54
31 -104 96 -139 182 -24 58 -44 91 -74 118 l-42 37 38 -6 c20 -3 53 -16 73
-28z"/>
<path d="M1343 3298 c-25 -28 -43 -62 -43 -80 1 -7 8 3 16 22 8 19 25 45 36
57 12 13 19 23 16 23 -2 0 -14 -10 -25 -22z"/>
<path d="M1276 3161 c-10 -21 -31 -58 -47 -82 -16 -24 -29 -48 -29 -54 1 -5
12 8 26 30 36 58 76 136 71 141 -2 2 -12 -13 -21 -35z"/>
<path d="M983 3000 c0 -25 2 -35 4 -22 2 12 2 32 0 45 -2 12 -4 2 -4 -23z"/>
<path d="M1345 2914 c-15 -31 -64 -94 -111 -145 -46 -50 -84 -95 -84 -102 0
-6 8 0 17 13 9 14 49 60 89 102 69 73 92 106 114 163 16 43 3 27 -25 -31z"/>
<path d="M864 2618 c10 -15 42 -46 73 -69 30 -24 75 -66 100 -93 25 -28 37
-37 25 -21 -11 17 -44 52 -74 79 -29 27 -73 67 -97 90 -33 30 -40 34 -27 14z"/>
<path d="M1358 2640 c-22 -13 -54 -58 -62 -90 -4 -14 4 -6 19 20 14 25 36 53
48 62 24 19 22 23 -5 8z"/>
<path d="M872 2362 c24 -56 107 -196 134 -227 30 -35 29 -32 -10 25 -24 36
-60 98 -80 138 -20 39 -39 72 -42 72 -3 0 -4 -3 -2 -8z"/>
<path d="M2200 3037 l0 -253 -81 -12 c-94 -13 -185 -51 -226 -94 l-28 -29 -5
233 -5 233 -35 0 -35 0 -2 -285 c-2 -157 0 -358 3 -447 l6 -163 33 0 34 0 3
164 3 164 30 44 c49 69 161 133 268 153 l37 7 0 -261 0 -261 103 -2 c56 -1
175 0 265 2 l162 3 0 -42 0 -41 175 0 c201 0 254 9 347 57 85 44 150 113 193
206 115 243 28 542 -192 660 -63 33 -164 56 -253 57 l-65 1 -21 42 c-23 48
-100 100 -161 111 -21 3 -154 6 -295 6 l-258 0 0 -253z m511 216 c55 -18 129
-80 129 -108 0 -12 -13 -15 -55 -15 l-55 0 0 -129 c0 -107 -3 -131 -16 -142
-11 -9 -53 -15 -125 -17 l-108 -4 -3 138 -3 139 -35 0 -35 0 -1 -125 c-1 -69
-2 -131 -3 -138 -1 -9 -15 -12 -48 -10 -70 4 -74 17 -71 224 2 127 7 175 17
187 20 25 335 25 412 0z m147 -181 c4 -41 -14 -105 -38 -134 l-19 -23 -1 75
c0 53 5 82 16 98 21 30 38 23 42 -16z m282 9 c112 -43 194 -128 242 -252 26
-68 36 -229 18 -312 -28 -135 -122 -262 -233 -312 -105 -48 -324 -61 -353 -20
-26 35 -17 53 40 80 227 107 213 464 -22 546 -17 6 -32 17 -32 24 0 7 22 29
49 48 60 43 93 107 93 179 l0 51 72 -6 c39 -3 96 -15 126 -26z m-740 -307 c0
-33 -4 -44 -12 -40 -7 2 -30 10 -52 17 -21 7 -41 19 -44 27 -8 22 26 42 70 42
l38 0 0 -46z m280 35 l50 -11 0 -263 c0 -241 -1 -263 -17 -270 -10 -4 -66 -10
-125 -13 l-108 -5 0 287 0 286 75 0 c40 0 97 -5 125 -11z m174 -91 c87 -101
86 -273 -1 -369 -19 -21 -39 -39 -44 -39 -5 0 -9 101 -9 225 0 131 4 225 9
225 5 0 26 -19 45 -42z m-516 16 c22 -8 44 -25 50 -37 11 -24 24 -374 15 -420
-5 -26 -8 -28 -52 -25 -68 4 -71 13 -71 276 0 138 4 222 10 222 5 0 27 -7 48
-16z"/>
</g>
</svg>
